<svg width="665" height="211" viewBox="0 0 665 211" fill="none" xmlns="http://www.w3.org/2000/svg">
<path d="M177.28 38.96V81.152L211.264 38.96H238.768L206.512 77.552L240.496 134H212.416L188.8 93.248L177.28 107.216V134H152.512V38.96H177.28ZM279.858 135.44C267.858 135.44 258.354 132.176 251.346 125.648C244.434 119.12 240.978 109.904 240.978 98C240.978 90.128 242.562 83.408 245.73 77.84C248.994 72.176 253.41 67.904 258.978 65.024C264.642 62.048 271.218 60.56 278.706 60.56C286.29 60.56 292.722 62.048 298.002 65.024C303.378 67.904 307.458 71.936 310.242 77.12C313.026 82.208 314.418 88.064 314.418 94.688C314.418 96.512 314.322 98.288 314.13 100.016C314.034 101.648 313.938 103.04 313.842 104.192H264.738C265.41 109.184 267.042 112.784 269.634 114.992C272.226 117.104 275.634 118.16 279.858 118.16C283.506 118.16 286.386 117.44 288.498 116C290.706 114.56 292.338 112.544 293.394 109.952L312.978 116.432C311.634 120.56 309.282 124.064 305.922 126.944C302.658 129.728 298.722 131.84 294.114 133.28C289.602 134.72 284.85 135.44 279.858 135.44ZM278.706 77.696C270.93 77.696 266.322 82.16 264.882 91.088H291.234C290.178 82.16 286.002 77.696 278.706 77.696ZM328.112 134V62H349.712L350.72 77.552C352.448 72.272 355.088 68.144 358.64 65.168C362.288 62.096 366.944 60.56 372.608 60.56C374.432 60.56 375.968 60.752 377.216 61.136C378.56 61.424 379.616 61.76 380.384 62.144L377.936 82.304C376.976 82.016 375.728 81.728 374.192 81.44C372.752 81.152 370.976 81.008 368.864 81.008C364.448 81.008 360.608 82.4 357.344 85.184C354.176 87.968 352.592 92.144 352.592 97.712V134H328.112ZM402.227 53.648C397.235 53.648 393.587 52.736 391.283 50.912C389.075 48.992 387.971 46.016 387.971 41.984C387.971 37.856 389.075 34.88 391.283 33.056C393.587 31.136 397.235 30.176 402.227 30.176C407.123 30.176 410.723 31.136 413.027 33.056C415.331 34.88 416.483 37.856 416.483 41.984C416.483 46.016 415.331 48.992 413.027 50.912C410.723 52.736 407.123 53.648 402.227 53.648ZM414.467 62V138.032C414.467 147.824 411.971 154.736 406.979 158.768C401.987 162.896 395.171 164.96 386.531 164.96C378.947 164.96 372.659 163.424 367.667 160.352L371.123 144.512C372.179 145.28 373.475 145.904 375.011 146.384C376.547 146.96 378.323 147.248 380.339 147.248C383.219 147.248 385.523 146.384 387.251 144.656C389.075 143.024 389.987 140.096 389.987 135.872V62H414.467ZM472.069 88.352C472.069 84.992 471.109 82.352 469.189 80.432C467.365 78.416 464.869 77.408 461.701 77.408C458.533 77.408 455.797 78.224 453.493 79.856C451.285 81.392 449.749 84.176 448.885 88.208L428.149 83.312C429.493 76.4 433.045 70.88 438.805 66.752C444.565 62.624 452.677 60.56 463.141 60.56C473.701 60.56 481.861 62.912 487.621 67.616C493.477 72.224 496.405 78.992 496.405 87.92V114.272C496.405 118.016 498.085 119.888 501.445 119.888C503.173 119.888 504.565 119.696 505.621 119.312L504.181 133.28C501.301 134.624 497.797 135.296 493.669 135.296C489.157 135.296 485.269 134.432 482.005 132.704C478.741 130.88 476.533 128.144 475.381 124.496C473.365 128.24 470.149 131.024 465.733 132.848C461.413 134.576 456.805 135.44 451.909 135.44C444.517 135.44 438.613 133.76 434.197 130.4C429.877 126.944 427.717 122 427.717 115.568C427.717 110.384 429.253 106.112 432.325 102.752C435.493 99.296 440.437 96.896 447.157 95.552L472.069 90.368V88.352ZM451.909 113.264C451.909 115.376 452.677 116.96 454.213 118.016C455.749 119.072 457.573 119.6 459.685 119.6C462.949 119.6 465.829 118.64 468.325 116.72C470.821 114.704 472.069 111.584 472.069 107.36V103.328L460.405 105.776C457.525 106.352 455.365 107.216 453.925 108.368C452.581 109.424 451.909 111.056 451.909 113.264Z" fill="#1B1717"/>
<rect x="513.069" y="24.9626" width="146.99" height="137.002" rx="12" transform="rotate(0.0293257 513.069 24.9626)" fill="#438BFF"/>
<rect x="513.069" y="24.9626" width="146.99" height="137.002" rx="12" transform="rotate(0.0293257 513.069 24.9626)" stroke="white"/>
<path d="M553.28 39.96V135H528.512V39.96H553.28ZM572.347 135V63H594.235L594.955 77.544C597.163 72.264 600.379 68.28 604.603 65.592C608.827 62.904 613.819 61.56 619.579 61.56C626.971 61.56 632.971 63.72 637.578 68.04C642.187 72.36 644.491 78.696 644.491 87.048V135H620.011V93.528C620.011 88.536 619.051 85.08 617.131 83.16C615.211 81.24 612.763 80.28 609.787 80.28C606.235 80.28 603.163 81.528 600.57 84.024C598.075 86.52 596.827 90.792 596.827 96.84V135H572.347Z" fill="#EEEBDD"/>
<path d="M0 9.00001H37V134H0V9.00001Z" fill="#438BFF"/>
<path d="M125.891 97L126.249 133.998L0.357938 135.216L7.76869e-07 98.2179L125.891 97Z" fill="#438BFF"/>
<path d="M13 96.1772L104.981 9L135.198 40.8817L43.2165 128.059L13 96.1772Z" fill="#438BFF"/>
<path d="M317.28 202.36C315.456 202.36 313.968 201.868 312.816 200.884C311.664 199.9 311.088 198.28 311.088 196.024V184H317.208V194.584C317.208 195.736 317.436 196.54 317.892 196.996C318.348 197.452 318.996 197.68 319.836 197.68C320.7 197.68 321.432 197.368 322.032 196.744C322.656 196.096 322.968 195.064 322.968 193.648V184H329.088V202H323.616L323.436 198.616C322.86 199.888 322.056 200.836 321.024 201.46C319.992 202.06 318.744 202.36 317.28 202.36ZM333.485 202V184H338.957L339.137 187.636C339.689 186.316 340.493 185.32 341.549 184.648C342.605 183.976 343.853 183.64 345.293 183.64C347.141 183.64 348.641 184.18 349.793 185.26C350.945 186.34 351.521 187.924 351.521 190.012V202H345.401V191.632C345.401 190.384 345.161 189.52 344.681 189.04C344.201 188.56 343.589 188.32 342.845 188.32C341.957 188.32 341.189 188.632 340.541 189.256C339.917 189.88 339.605 190.948 339.605 192.46V202H333.485ZM364.377 183.64C366.273 183.64 367.929 184.012 369.345 184.756C370.785 185.5 371.901 186.568 372.693 187.96C373.509 189.352 373.917 191.032 373.917 193C373.917 194.968 373.509 196.648 372.693 198.04C371.901 199.432 370.785 200.5 369.345 201.244C367.929 201.988 366.273 202.36 364.377 202.36C362.505 202.36 360.849 201.988 359.409 201.244C357.993 200.5 356.877 199.432 356.061 198.04C355.269 196.648 354.873 194.968 354.873 193C354.873 191.032 355.269 189.352 356.061 187.96C356.877 186.568 357.993 185.5 359.409 184.756C360.849 184.012 362.505 183.64 364.377 183.64ZM364.377 187.996C363.321 187.996 362.493 188.392 361.893 189.184C361.317 189.952 361.029 191.224 361.029 193C361.029 194.752 361.317 196.024 361.893 196.816C362.493 197.608 363.321 198.004 364.377 198.004C365.457 198.004 366.285 197.608 366.861 196.816C367.461 196.024 367.761 194.752 367.761 193C367.761 191.224 367.461 189.952 366.861 189.184C366.285 188.392 365.457 187.996 364.377 187.996ZM377.36 202V184H382.76L383.012 187.888C383.444 186.568 384.104 185.536 384.992 184.792C385.904 184.024 387.068 183.64 388.484 183.64C388.94 183.64 389.324 183.688 389.636 183.784C389.972 183.856 390.236 183.94 390.428 184.036L389.816 189.076C389.576 189.004 389.264 188.932 388.88 188.86C388.52 188.788 388.076 188.752 387.548 188.752C386.444 188.752 385.484 189.1 384.668 189.796C383.876 190.492 383.48 191.536 383.48 192.928V202H377.36ZM399.242 202.36C397.01 202.36 395.21 201.544 393.842 199.912C392.498 198.28 391.826 196 391.826 193.072C391.826 191.056 392.138 189.352 392.762 187.96C393.41 186.544 394.298 185.476 395.426 184.756C396.578 184.012 397.898 183.64 399.386 183.64C400.658 183.64 401.738 183.952 402.626 184.576C403.538 185.2 404.222 186.028 404.678 187.06V176.368H410.798V202H405.326L405.11 198.472C404.606 199.672 403.838 200.62 402.806 201.316C401.798 202.012 400.61 202.36 399.242 202.36ZM401.366 197.86C402.374 197.86 403.178 197.44 403.778 196.6C404.378 195.76 404.678 194.524 404.678 192.892C404.678 191.38 404.39 190.216 403.814 189.4C403.238 188.56 402.434 188.14 401.402 188.14C400.346 188.14 399.506 188.536 398.882 189.328C398.282 190.096 397.982 191.32 397.982 193C397.982 194.68 398.282 195.916 398.882 196.708C399.482 197.476 400.31 197.86 401.366 197.86ZM418.248 181.912C417 181.912 416.088 181.684 415.512 181.228C414.96 180.748 414.684 180.004 414.684 178.996C414.684 177.964 414.96 177.22 415.512 176.764C416.088 176.284 417 176.044 418.248 176.044C419.472 176.044 420.372 176.284 420.948 176.764C421.524 177.22 421.812 177.964 421.812 178.996C421.812 180.004 421.524 180.748 420.948 181.228C420.372 181.684 419.472 181.912 418.248 181.912ZM421.308 184V202H415.188V184H421.308ZM425.665 202V184H431.137L431.317 187.636C431.869 186.316 432.673 185.32 433.729 184.648C434.785 183.976 436.033 183.64 437.473 183.64C439.321 183.64 440.821 184.18 441.973 185.26C443.125 186.34 443.701 187.924 443.701 190.012V202H437.581V191.632C437.581 190.384 437.341 189.52 436.861 189.04C436.381 188.56 435.769 188.32 435.025 188.32C434.137 188.32 433.369 188.632 432.721 189.256C432.097 189.88 431.785 190.948 431.785 192.46V202H425.665ZM458.033 190.588C458.033 189.748 457.793 189.088 457.313 188.608C456.857 188.104 456.233 187.852 455.441 187.852C454.649 187.852 453.965 188.056 453.389 188.464C452.837 188.848 452.453 189.544 452.237 190.552L447.053 189.328C447.389 187.6 448.277 186.22 449.717 185.188C451.157 184.156 453.185 183.64 455.801 183.64C458.441 183.64 460.481 184.228 461.921 185.404C463.385 186.556 464.117 188.248 464.117 190.48V197.068C464.117 198.004 464.537 198.472 465.377 198.472C465.809 198.472 466.157 198.424 466.421 198.328L466.061 201.82C465.341 202.156 464.465 202.324 463.433 202.324C462.305 202.324 461.333 202.108 460.517 201.676C459.701 201.22 459.149 200.536 458.861 199.624C458.357 200.56 457.553 201.256 456.449 201.712C455.369 202.144 454.217 202.36 452.993 202.36C451.145 202.36 449.669 201.94 448.565 201.1C447.485 200.236 446.945 199 446.945 197.392C446.945 196.096 447.329 195.028 448.097 194.188C448.889 193.324 450.125 192.724 451.805 192.388L458.033 191.092V190.588ZM452.993 196.816C452.993 197.344 453.185 197.74 453.569 198.004C453.953 198.268 454.409 198.4 454.937 198.4C455.753 198.4 456.473 198.16 457.097 197.68C457.721 197.176 458.033 196.396 458.033 195.34V194.332L455.117 194.944C454.397 195.088 453.857 195.304 453.497 195.592C453.161 195.856 452.993 196.264 452.993 196.816ZM468.837 202V184H474.237L474.489 187.888C474.921 186.568 475.581 185.536 476.469 184.792C477.381 184.024 478.545 183.64 479.961 183.64C480.417 183.64 480.801 183.688 481.113 183.784C481.449 183.856 481.713 183.94 481.905 184.036L481.293 189.076C481.053 189.004 480.741 188.932 480.357 188.86C479.997 188.788 479.553 188.752 479.025 188.752C477.921 188.752 476.961 189.1 476.145 189.796C475.353 190.492 474.957 191.536 474.957 192.928V202H468.837ZM502.413 184L495.861 202C495.189 203.896 494.457 205.408 493.665 206.536C492.873 207.688 491.937 208.504 490.857 208.984C489.777 209.488 488.481 209.74 486.969 209.74C485.937 209.74 485.001 209.632 484.161 209.416C483.345 209.2 482.625 208.9 482.001 208.516L483.225 204.376C483.657 204.688 484.113 204.904 484.593 205.024C485.073 205.168 485.685 205.24 486.429 205.24C487.125 205.24 487.689 205.12 488.121 204.88C488.577 204.664 488.937 204.208 489.201 203.512L489.669 202.396L487.581 197.5L482.181 184H488.913L491.685 194.26L492.549 198.076L493.557 194.116L496.329 184H502.413ZM520.707 197.212H532.623V202H514.515V178.24H520.707V197.212ZM538.799 181.912C537.551 181.912 536.639 181.684 536.063 181.228C535.511 180.748 535.235 180.004 535.235 178.996C535.235 177.964 535.511 177.22 536.063 176.764C536.639 176.284 537.551 176.044 538.799 176.044C540.023 176.044 540.923 176.284 541.499 176.764C542.075 177.22 542.363 177.964 542.363 178.996C542.363 180.004 542.075 180.748 541.499 181.228C540.923 181.684 540.023 181.912 538.799 181.912ZM541.859 184V202H535.739V184H541.859ZM546.216 202V184H551.688L551.868 187.636C552.42 186.316 553.224 185.32 554.28 184.648C555.336 183.976 556.584 183.64 558.024 183.64C559.872 183.64 561.372 184.18 562.524 185.26C563.676 186.34 564.252 187.924 564.252 190.012V202H558.132V191.632C558.132 190.384 557.892 189.52 557.412 189.04C556.932 188.56 556.32 188.32 555.576 188.32C554.688 188.32 553.92 188.632 553.272 189.256C552.648 189.88 552.336 190.948 552.336 192.46V202H546.216ZM574.66 176.368V191.56L581.5 184H588.304L581.68 191.056L588.7 202H581.932L577.576 194.62L574.66 197.86V202H568.54V176.368H574.66ZM598.734 202.36C595.734 202.36 593.358 201.544 591.606 199.912C589.878 198.28 589.014 195.976 589.014 193C589.014 191.032 589.41 189.352 590.202 187.96C591.018 186.544 592.122 185.476 593.514 184.756C594.93 184.012 596.574 183.64 598.446 183.64C600.342 183.64 601.95 184.012 603.27 184.756C604.614 185.476 605.634 186.484 606.33 187.78C607.026 189.052 607.374 190.516 607.374 192.172C607.374 192.628 607.35 193.072 607.302 193.504C607.278 193.912 607.254 194.26 607.23 194.548H594.954C595.122 195.796 595.53 196.696 596.178 197.248C596.826 197.776 597.678 198.04 598.734 198.04C599.646 198.04 600.366 197.86 600.894 197.5C601.446 197.14 601.854 196.636 602.118 195.988L607.014 197.608C606.678 198.64 606.09 199.516 605.25 200.236C604.434 200.932 603.45 201.46 602.298 201.82C601.17 202.18 599.982 202.36 598.734 202.36ZM598.446 187.924C596.502 187.924 595.35 189.04 594.99 191.272H601.578C601.314 189.04 600.27 187.924 598.446 187.924ZM617.422 202.36C615.19 202.36 613.39 201.544 612.022 199.912C610.678 198.28 610.006 196 610.006 193.072C610.006 191.056 610.318 189.352 610.942 187.96C611.59 186.544 612.478 185.476 613.606 184.756C614.758 184.012 616.078 183.64 617.566 183.64C618.838 183.64 619.918 183.952 620.806 184.576C621.718 185.2 622.402 186.028 622.858 187.06V176.368H628.978V202H623.506L623.29 198.472C622.786 199.672 622.018 200.62 620.986 201.316C619.978 202.012 618.79 202.36 617.422 202.36ZM619.546 197.86C620.554 197.86 621.358 197.44 621.958 196.6C622.558 195.76 622.858 194.524 622.858 192.892C622.858 191.38 622.57 190.216 621.994 189.4C621.418 188.56 620.614 188.14 619.582 188.14C618.526 188.14 617.686 188.536 617.062 189.328C616.462 190.096 616.162 191.32 616.162 193C616.162 194.68 616.462 195.916 617.062 196.708C617.662 197.476 618.49 197.86 619.546 197.86ZM639.922 178.24V202H633.73V178.24H639.922ZM644.688 202V184H650.16L650.34 187.636C650.892 186.316 651.696 185.32 652.752 184.648C653.808 183.976 655.056 183.64 656.496 183.64C658.344 183.64 659.844 184.18 660.996 185.26C662.148 186.34 662.724 187.924 662.724 190.012V202H656.604V191.632C656.604 190.384 656.364 189.52 655.884 189.04C655.404 188.56 654.792 188.32 654.048 188.32C653.16 188.32 652.392 188.632 651.744 189.256C651.12 189.88 650.808 190.948 650.808 192.46V202H644.688Z" fill="#1B1717"/>
</svg>
